<svg width="30.522034" height="30.6" viewBox="0 0 30.522034 30.6" xmlns="http://www.w3.org/2000/svg">
  <style type="text/css">
    <![CDATA[
    .st0 {
      fill-rule: evenodd;
      clip-rule: evenodd;
      fill: #0CB0E5;
    }

    .st1 {
      fill-rule: evenodd;
      clip-rule: evenodd;
    }
    ]]>
  </style>
  <g style="display:inline">
    <rect
      style="opacity:1;vector-effect:none;fill:#ffffff;fill-opacity:1;stroke:none;stroke-width:5.15906;stroke-linecap:butt;stroke-linejoin:miter;stroke-miterlimit:4;stroke-dasharray:none;stroke-dashoffset:0;stroke-opacity:1"
      width="30.478605" height="30.540487" x="0.038976189" y="0.037500855" />
    <path style="clip-rule:evenodd;display:inline;fill-rule:evenodd;stroke-width:0.999996"
      d="M 2.2360321,1.5417452 H 28.305869 V 2.2403441 H 29.00447 V 13.916927 h -0.698601 v 2.095797 h 0.698601 v 12.375181 h -0.698601 v 0.698599 H 2.2360321 V 28.387905 H 1.5374309 V 16.012724 H 2.2360321 V 13.817128 H 1.5374309 V 2.2403441 H 2.2360321 Z M 28.305869,0.74334644 H 2.2360321 V 0.04474749 H 0.04042816 V 2.2403441 H 0.73902942 V 13.916927 H 0.04042816 v 2.095797 H 0.73902942 V 28.387905 H 0.04042816 v 2.195597 H 2.2360321 v -0.6986 H 28.305869 v 0.6986 h 2.195604 V 28.387905 H 29.802872 V 16.012724 h 0.698601 V 13.817128 H 29.802872 V 2.2403441 h 0.698601 V 0.04474749 h -2.195604 z"
      class="st1" />
    <g transform="matrix(1.1448443,0,0,1.1448405,-1.1330672,-1.722409)"
      style="display:inline;stroke-width:0.873483">
      <path d="m 17.42506,11.30263 h 2.247655 v 2.247658 H 17.42506 Z"
        style="clip-rule:evenodd;fill:#0cb0e5;fill-rule:evenodd;stroke-width:0.873482" />
      <path
        d="M 19.680342,4.2250002 H 17.428368 V 8.943421 H 10.350737 V 11.30263 H 7.9915263 v 10.938158 h 2.3592107 v 2.359211 h 9.329604 V 13.54874 h -2.251973 v 8.692048 H 10.350737 V 11.30263 h 7.077631 2.251974 z"
        style="clip-rule:evenodd;fill-rule:evenodd;stroke-width:0.873482" />
    </g>
  </g>
</svg>