<svg xmlns="http://www.w3.org/2000/svg" width="308.25" height="159" viewBox="0 0 411 212">
  <defs>
    <style>
      .cls-1 {
        fill: #efb77b;
        fill-rule: evenodd;
      }
    </style>
  </defs>
  <path id="LOGO" class="cls-1" d="M72.668,58.3q6.324,0,9.016-4.746t2.692-12.406q0-7.658-2.692-12.323t-9.016-4.663L34.723,24q-6.326,0-9.016,4.746T23.014,41.152q0,7.662,2.692,12.406T34.723,58.3h10.17V191.86H34.723q-6.326,0-9.016,4.746t-2.692,12.24q0,7.662,2.692,12.407T34.723,226h82.984V159.554q0-12.323-2.436-17.569t-6.282-5.246q-3.932,0-6.367,5.246t-2.435,17.569V191.86H62.413V58.3H72.668Zm136.44-9.076Q194.281,19,174.8,19q-17.52,0-31.621,25.146-17.435,31.31-17.434,80.933t17.434,80.767Q157.275,231,174.8,231q19.487,0,34.313-30.225t14.828-75.688Q223.936,79.456,209.108,49.228ZM196.759,176.54Q187.1,196.859,174.8,196.856q-12.222,0-21.878-20.4t-9.657-51.374q0-30.973,9.657-51.457T174.8,53.142q12.308,0,21.964,20.4t9.657,51.54Q206.416,156.225,196.759,176.54Zm132.766-19.651a27.615,27.615,0,0,0,1.837-10.491q0-7.657-2.692-12.323t-9.016-4.663l-31.108-.167q-6.327,0-9.017,4.746T276.837,146.4q0,7.662,2.692,12.406t9.017,4.746h17.861v24.48q-9.915,8.829-21.964,8.826-17.776,0-25.937-14.238T250.344,140.9V116.256a115.012,115.012,0,0,1,4.615-33.306q4.614-15.32,10.084-21.482,7.692-8.325,18.118-8.326a23.824,23.824,0,0,1,13.119,3.747,21.459,21.459,0,0,1,8.161,8.576q1.454,3,2.607,11.574t2.863,11.074q2.221,3.665,5.3,3.664,3.846,0,6.281-5.246t2.436-17.569V46.814q0-12.322-2.393-17.486T315.3,24.166q-3.333,0-6.837,6.162a41.682,41.682,0,0,0-12.264-8.493A33.572,33.572,0,0,0,282.563,19q-24.7,0-39.056,36.3-10.685,26.814-10.683,60.95V140.9a169.54,169.54,0,0,0,4.359,40.051q4.358,17.9,9.529,27.061a44.093,44.093,0,0,0,14.144,15.154A43.2,43.2,0,0,0,285.725,231a36.769,36.769,0,0,0,17.99-4.58q8.333-4.578,20.212-17.069v-45.8A13.094,13.094,0,0,0,329.525,156.889Zm89.65-107.661Q404.346,19,384.861,19q-17.52,0-31.621,25.146-17.433,31.31-17.434,80.933t17.434,80.767Q367.342,231,384.861,231q19.486,0,34.314-30.225T434,125.082Q434,79.456,419.175,49.228ZM406.825,176.54q-9.658,20.319-21.964,20.316-12.222,0-21.878-20.4t-9.657-51.374q0-30.973,9.657-51.457t21.878-20.483q12.308,0,21.964,20.4t9.657,51.54Q416.482,156.225,406.825,176.54Z" transform="translate(-23 -19)"/>
</svg>
